<svg height="512" viewBox="0 0 512 512" width="512" xmlns="http://www.w3.org/2000/svg"><g id="Filled_Outline" data-name="Filled Outline"><path d="m24 128h464a0 0 0 0 1 0 0v344a16 16 0 0 1 -16 16h-432a16 16 0 0 1 -16-16v-344a0 0 0 0 1 0 0z" fill="#cfd8dc"/><path d="m40 56h432a16 16 0 0 1 16 16v64a0 0 0 0 1 0 0h-464a0 0 0 0 1 0 0v-64a16 16 0 0 1 16-16z" fill="#546e7a"/><g fill="#253238"><rect height="64" rx="16" width="32" x="72" y="24"/><rect height="64" rx="16" width="32" x="296" y="24"/><rect height="64" rx="16" width="32" x="184" y="24"/><rect height="64" rx="16" width="32" x="408" y="24"/></g><path d="m320 440h-128v-152h-40l104-104 104 104h-40z" fill="#1a76d2"/><path d="m248 392h16v-16h16a8 8 0 0 0 8-8v-40a8 8 0 0 0 -8-8h-40v-24h48v-16h-24v-16h-16v16h-16a8 8 0 0 0 -8 8v40a8 8 0 0 0 8 8h40v24h-48v16h24z"/><path d="m152 296h32v144a8 8 0 0 0 8 8h128a8 8 0 0 0 8-8v-144h32a8 8 0 0 0 5.657-13.657l-104-104a8 8 0 0 0 -11.314 0l-104 104a8 8 0 0 0 5.657 13.657zm104-100.687 84.687 84.687h-20.687a8 8 0 0 0 -8 8v144h-112v-144a8 8 0 0 0 -8-8h-20.687z"/><path d="m472 48h-24v-8a24 24 0 0 0 -48 0v8h-64v-8a24 24 0 0 0 -48 0v8h-64v-8a24 24 0 0 0 -48 0v8h-64v-8a24 24 0 0 0 -48 0v8h-24a24.028 24.028 0 0 0 -24 24v400a24.028 24.028 0 0 0 24 24h432a24.028 24.028 0 0 0 24-24v-400a24.028 24.028 0 0 0 -24-24zm-56-8a8 8 0 0 1 16 0v32a8 8 0 0 1 -16 0zm-112 0a8 8 0 0 1 16 0v32a8 8 0 0 1 -16 0zm-112 0a8 8 0 0 1 16 0v32a8 8 0 0 1 -16 0zm-112 0a8 8 0 0 1 16 0v32a8 8 0 0 1 -16 0zm400 432a8.009 8.009 0 0 1 -8 8h-432a8.009 8.009 0 0 1 -8-8v-328h448zm0-344h-448v-56a8.009 8.009 0 0 1 8-8h24v8a24 24 0 0 0 48 0v-8h64v8a24 24 0 0 0 48 0v-8h64v8a24 24 0 0 0 48 0v-8h64v8a24 24 0 0 0 48 0v-8h24a8.009 8.009 0 0 1 8 8z"/></g></svg>