<svg id="Layer_1" height="512" viewBox="0 0 512 512" width="512" xmlns="http://www.w3.org/2000/svg" data-name="Layer 1"><path d="m8 240h496v264h-496z" fill="#27b1e2"/><path d="m168 88h16v152h-16z" fill="#894619"/><path d="m328 88h16v152h-16z" fill="#894619"/><g fill="#fff"><path d="m168 416h-64a8 8 0 0 1 -8-8v-88a8 8 0 0 1 8-8h64a8 8 0 0 1 8 8v88a8 8 0 0 1 -8 8zm-56-16h48v-72h-48z"/><path d="m328 416h-48a8 8 0 0 1 -8-8v-88a8 8 0 0 1 8-8h48v16h-40v72h40z"/><path d="m208 416h-16v-96a8 8 0 0 1 8-8h48a8 8 0 0 1 8 8v56a8 8 0 0 1 -8 8h-40zm0-48h32v-40h-32z"/><path d="m280 360h48v16h-48z"/><path d="m408 416a8 8 0 0 1 -6.75-3.706l-41.25-64.821v68.527h-16v-96a8 8 0 0 1 14.75-4.295l41.25 64.822v-68.527h16v96a8 8 0 0 1 -8 8z"/></g><path d="m256 0a88 88 0 1 0 88 88 88.1 88.1 0 0 0 -88-88z" fill="#f7d74f"/><path d="m248 48h16v72h-16z" fill="#51270b"/><path d="m104 240 264 264h136v-264z" fill="#fafbfc" opacity=".3"/><path d="m318.805 149.573a87.957 87.957 0 0 0 -108.788-136.573c36.151 10.373 98.333 41.887 108.788 136.573z" fill="#fafbfc" opacity=".3"/></svg>